<?xml version="1.0" encoding="UTF-8"?>
<svg id="Layer_1" data-name="Layer 1" xmlns="http://www.w3.org/2000/svg" viewBox="0 0 596 348.25">
  <defs>
    <style>
      .cls-1 {
        fill: #006838;
      }
    </style>
  </defs>
  <g>
    <path class="cls-1" d="M8.33,62.54v-7.31c0-1.53.75-2.22,2.47-2.22h5.03c1.66,0,2.42-.69,2.42-2.27V14.07c0-1.57-.75-2.27-2.42-2.27h-5.03c-1.71,0-2.47-.69-2.47-2.22V2.27c0-1.57.75-2.27,2.47-2.27h25.92c1.66,0,2.42.69,2.42,2.27v7.31c0,1.53-.75,2.22-2.42,2.22h-4.93c-1.71,0-2.47.69-2.47,2.27v9.95c0,1.57.75,2.27,2.47,2.27h22.85c1.66,0,2.42-.69,2.42-2.27v-9.95c0-1.57-.75-2.27-2.42-2.27h-4.98c-1.66,0-2.42-.69-2.42-2.22V2.27c0-1.57.76-2.27,2.42-2.27h25.97c1.66,0,2.42.69,2.42,2.27v7.31c0,1.53-.76,2.22-2.42,2.22h-5.08c-1.66,0-2.42.69-2.42,2.27v36.67c0,1.57.76,2.27,2.42,2.27h5.08c1.66,0,2.42.69,2.42,2.22v7.31c0,1.57-.76,2.27-2.42,2.27h-25.97c-1.66,0-2.42-.69-2.42-2.27v-7.31c0-1.53.76-2.22,2.42-2.22h4.98c1.66,0,2.42-.69,2.42-2.27v-11.2c0-1.53-.75-2.22-2.42-2.22h-22.85c-1.71,0-2.47.69-2.47,2.22v11.2c0,1.57.75,2.27,2.47,2.27h4.93c1.66,0,2.42.69,2.42,2.22v7.31c0,1.57-.75,2.27-2.42,2.27H10.79c-1.71,0-2.47-.69-2.47-2.27Z"/>
    <path class="cls-1" d="M81.76,41.62c0-13.8,9.31-25.18,24.97-25.18,14.7,0,25.37,10.14,25.37,24.81,0,13.8-9.31,25.14-24.97,25.14-14.7,0-25.37-10.09-25.37-24.77ZM120.93,46.39c0-9.91-9.56-19.72-19.08-19.72-5.59,0-8.86,3.47-8.86,9.77,0,9.95,9.51,19.72,19.03,19.72,5.59,0,8.91-3.43,8.91-9.77Z"/>
    <path class="cls-1" d="M138.59,62.54v-7.31c0-1.53.81-2.22,2.47-2.22h4.78c1.66,0,2.42-.69,2.42-2.27v-15.97c0-1.85-.81-2.64-2.77-2.64h-3.22c-3.47,0-5.18-1.57-5.18-4.44,0-5.74,6.95-11.25,14.25-11.25,4.33,0,6.09,2.08,6.09,6.57v2.64c3.73-5.97,8.71-9.21,15.55-9.21s11.17,3.29,12.58,8.94c3.88-5.93,8.96-8.94,15.71-8.94,9.41,0,14.85,5.37,14.35,14.49l-1.01,19.68c-.1,1.67.76,2.41,2.42,2.41h3.22c1.66,0,2.42.69,2.42,2.22v7.31c0,1.57-.75,2.27-2.42,2.27h-20.09c-1.71,0-2.47-.69-2.47-2.27v-7.31c0-1.53.75-2.22,2.47-2.22h2.37c1.66,0,2.42-.69,2.42-2.27l.05-14.54c.05-5.23-3.07-7.13-8.86-7.13-6.24,0-9.97,2.87-9.97,8.89v12.64c0,1.71.7,2.41,2.42,2.41h2.42c1.66,0,2.42.69,2.42,2.22v7.31c0,1.57-.76,2.27-2.42,2.27h-19.18c-1.71,0-2.47-.69-2.47-2.27v-7.31c0-1.53.75-2.22,2.47-2.22h2.37c1.66,0,2.42-.69,2.42-2.27v-14.54c0-5.23-3.07-7.13-8.76-7.13-6.34,0-10.02,2.87-10.02,8.89v12.64c0,1.71.76,2.41,2.42,2.41h2.42c1.66,0,2.42.69,2.42,2.22v7.31c0,1.57-.76,2.27-2.42,2.27h-21.6c-1.66,0-2.47-.69-2.47-2.27Z"/>
    <path class="cls-1" d="M227.13,41.25c0-14.58,10.17-24.81,24.72-24.81s21.7,9.31,21.7,19.31c0,3.43-1.36,5.19-4.68,5.19h-29.35c.96,8.29,6.19,14.35,15.2,14.35,5.49,0,8.46-2.5,8.81-6.53.2-1.39.75-2.08,2.37-2.08h4.43c1.61,0,2.42.74,2.42,2.22,0,10.74-7.85,17.5-19.98,17.5-15.66,0-25.62-10.74-25.62-25.14ZM255.93,34.68c2.21-.14,3.32-1.3,3.32-3.19,0-3.24-2.97-6.9-8.76-6.9-6.39,0-10.57,4.72-11.07,11.02l16.51-.93Z"/>
    <path class="cls-1" d="M280.14,73.1c0-4.4,3.22-8.15,8.71-10.56-5.13-1.39-7.9-3.94-7.9-7.31,0-3.1,2.27-5.79,7.75-9.4-5.34-2.92-8.36-7.69-8.36-13.19,0-9.44,9.16-16.2,22.5-16.2,5.08,0,10.02,1.16,13.99,3.01v-5.09c0-4.4,1.66-6.39,5.89-6.39,7,0,13.89,5.32,13.89,10.97,0,2.92-1.76,4.44-5.24,4.44h-2.82c-2.01,0-2.82.79-2.82,2.69v5.56c0,10.79-9.11,17.55-24.06,17.55h-5.34c-2.47,0-3.67.97-3.67,2.69s1.21,2.78,3.67,2.78h17.07c11.93,0,19.13,3.84,19.13,11.99,0,10.56-12.38,18.29-30.25,18.29-13.84,0-22.15-4.68-22.15-11.81ZM318.7,71.16c0-4.26-5.59-7.04-14.2-7.04h-1.56c-7.2,0-10.37,1.94-10.37,5.37,0,4.77,6.29,8.24,14.95,8.24,7.2,0,11.17-2.31,11.17-6.57ZM314.72,34.95c0-6.2-6.34-11.67-14.04-11.67-4.78,0-7.75,2.59-7.75,6.85,0,6.2,6.34,11.67,14.04,11.67,4.83,0,7.75-2.64,7.75-6.85Z"/>
    <path class="cls-1" d="M339.78,62.54v-7.31c0-1.53.81-2.22,2.47-2.22h4.78c1.66,0,2.42-.69,2.42-2.27v-15.97c0-1.85-.8-2.64-2.77-2.64h-3.22c-3.47,0-5.18-1.57-5.18-4.44,0-5.74,6.95-11.25,14.25-11.25,4.33,0,6.09,2.08,6.09,6.57v4.07c3.67-7.08,9.01-10.65,14.5-10.65s9.16,3.38,9.16,8.61c0,4.81-3.47,8.29-7.6,8.29-1.41,0-3.02-.42-4.73-1.53l-2.06-1.39c-.86-.56-1.71-.79-2.47-.79-3.02,0-5.54,3.7-5.74,9.12l-.5,11.85c-.1,1.67.7,2.41,2.37,2.41h10.17c1.71,0,2.47.69,2.47,2.22v7.31c0,1.57-.75,2.27-2.47,2.27h-29.45c-1.66,0-2.47-.69-2.47-2.27Z"/>
    <path class="cls-1" d="M383.47,41.62c0-13.8,9.31-25.18,24.97-25.18,14.7,0,25.37,10.14,25.37,24.81,0,13.8-9.31,25.14-24.97,25.14-14.7,0-25.37-10.09-25.37-24.77ZM422.63,46.39c0-9.91-9.56-19.72-19.08-19.72-5.59,0-8.86,3.47-8.86,9.77,0,9.95,9.51,19.72,19.03,19.72,5.59,0,8.91-3.43,8.91-9.77Z"/>
    <path class="cls-1" d="M449.16,61.76l-4.48-27.87c-.4-2.27-1.01-2.64-2.62-2.64h-2.77c-1.71,0-2.47-.69-2.47-2.22v-8.75c0-1.53.76-2.22,2.47-2.22h19.88c1.71,0,2.47.69,2.47,2.22v7.27c0,1.48-.6,2.08-2.11,2.27l-3.47.28c-1.76.23-2.32,1.06-1.81,3.19l3.32,16.2c.4,2.08,1.36,2.92,2.57,2.92s2.01-.83,2.47-2.92l6.14-28.47c.45-2.18,1.36-2.96,3.62-2.96h6.19c2.21,0,3.12.79,3.57,2.96l6.14,28.47c.45,2.08,1.31,2.92,2.52,2.92s2.11-.79,2.57-2.92l3.27-16.2c.5-2.13-.05-2.96-1.81-3.19l-3.42-.28c-1.51-.19-2.11-.79-2.11-2.27v-7.27c0-1.53.75-2.22,2.42-2.22h19.93c1.66,0,2.47.69,2.47,2.22v8.75c0,1.53-.81,2.22-2.47,2.22h-2.77c-1.61,0-2.27.37-2.67,2.64l-4.48,27.87c-.4,2.27-2.11,3.06-4.63,3.06h-10.57c-2.47,0-4.13-.79-4.63-3.06l-4.18-22.04c-.5-2.31-1.11-3.1-2.26-3.1s-1.76.88-2.21,3.1l-4.23,22.04c-.5,2.27-2.11,3.06-4.63,3.06h-10.52c-2.52,0-4.28-.79-4.68-3.06Z"/>
    <path class="cls-1" d="M518.12,62.54v-7.31c0-1.53.81-2.22,2.47-2.22h4.78c1.66,0,2.42-.69,2.42-2.27v-15.97c0-1.85-.8-2.64-2.77-2.64h-3.22c-3.47,0-5.18-1.57-5.18-4.44,0-5.74,6.95-11.25,14.25-11.25,4.33,0,6.09,2.08,6.09,6.57v2.87c4.08-6.02,10.12-9.44,17.22-9.44,9.31,0,14.75,5.23,14.25,14.49l-.96,19.77c-.1,1.62.65,2.31,2.37,2.31h3.27c1.66,0,2.47.69,2.47,2.22v7.31c0,1.57-.8,2.27-2.47,2.27h-20.89c-1.66,0-2.42-.69-2.42-2.27v-7.31c0-1.53.75-2.22,2.42-2.22h3.22c1.66,0,2.42-.69,2.42-2.41v-14.07c0-5.09-2.97-7.08-9.62-7.08-7.2,0-10.87,3.06-10.87,8.84v12.31c0,1.71.75,2.41,2.42,2.41h3.22c1.66,0,2.42.69,2.42,2.22v7.31c0,1.57-.76,2.27-2.42,2.27h-22.4c-1.66,0-2.47-.69-2.47-2.27Z"/>
  </g>
  <g>
    <path class="cls-1" d="M0,287.9c0-10.53,5.54-16.14,14.72-16.14,8.31,0,13.51,4.56,21.47,18.25l5.89,10.18c11.77,20.7,26.15,28.77,47.96,28.77,29.78,0,49.18-17.9,49.18-45.26,0-21.75-11.08-34.39-37.4-43.51l-40.87-14.04c-36.36-12.46-55.24-33.69-55.24-64.91,0-40.7,31.34-68.42,72.55-68.42,43.46,0,83.98,30.53,83.98,60.35,0,10.53-5.02,16.14-14.37,16.14-8.31,0-13.51-4.56-21.82-18.25l-5.89-9.83c-12.12-20.35-26.49-29.12-46.58-29.12-26.32,0-43.64,16.84-43.64,42.81,0,22.81,12.29,37.19,36.19,44.56l44.33,13.68c36.71,11.4,52.99,30.18,52.99,62.46,0,44.21-32.21,72.63-77.23,72.63S0,318.43,0,287.9Z"/>
    <path class="cls-1" d="M182.16,337.03v-11.23c0-4.56,1.73-6.32,6.23-6.32h24.24c4.5,0,6.23-1.75,6.23-6.32V127.9c0-4.56-1.73-6.32-6.23-6.32h-24.24c-4.5,0-6.23-1.75-6.23-6.32v-11.23c0-4.56,1.73-6.32,6.23-6.32h107.36c4.5,0,6.23,1.75,6.23,6.32v11.23c0,4.56-1.73,6.32-6.23,6.32h-46.41c-4.5,0-6.23,1.75-6.23,6.32v185.27c0,4.56,1.73,6.32,6.23,6.32h53.68c5.54,0,7.97-1.4,10.04-5.61l28.74-59.3c2.08-4.56,4.85-6.67,9-6.67,6.23,0,9.7,4.91,7.62,12.28l-20.43,71.93c-2.42,8.77-5.54,11.23-14.89,11.23h-134.72c-4.5,0-6.23-1.75-6.23-6.32Z"/>
    <path class="cls-1" d="M375.75,223.34c0-78.6,45.71-130.53,109.09-130.53s111.17,49.12,111.17,124.92-45.71,130.53-109.09,130.53-111.17-49.12-111.17-124.92ZM572.45,228.95c0-67.02-44.33-110.18-95.58-110.18-47.1,0-77.57,40.35-77.57,93.34,0,67.02,44.33,110.18,95.58,110.18,47.1,0,77.57-40.35,77.57-93.34Z"/>
  </g>
</svg>