<?xml version="1.0" encoding="UTF-8"?>
<svg id="Layer_1" data-name="Layer 1" xmlns="http://www.w3.org/2000/svg" viewBox="0 0 307.43 105.54">
  <defs>
    <style>
      .cls-1 {
        fill: #fff;
      }

      .cls-1, .cls-2 {
        stroke: #31473a;
        stroke-miterlimit: 10;
        stroke-width: 3px;
      }

      .cls-3 {
        fill: #6e7f5b;
      }

      .cls-4 {
        fill: #31473a;
      }
    </style>
  </defs>
  <g>
    <path class="cls-4" d="M91.88,46.12c-.12.3-.3.36-.66.3l-1.26-.3c-.18-.06-.3-.18-.18-.48.06-.3.18-.6.18-1.02,0-.36-.3-.84-.9-.84-.48,0-1.32.18-2.34.66-1.08.54-5.04,1.56-8.34,1.56-9.72,0-15.84-5.52-15.84-13.86,0-9.72,2.88-15.24,8.4-21.24,3.9-4.26,9.3-6.9,16.2-6.9,2.88,0,5.76.54,7.92,1.98.78.54,2.04,1.38,2.7,1.38.78,0,1.32-.48,1.56-1.26.12-.36.3-.48.54-.42l1.26.24c.18.06.3.24.18.6l-3.18,12.72c-.12.36-.24.48-.66.36l-1.32-.12c-.3,0-.42-.24-.36-.6.54-5.88-1.56-12.24-8.16-12.24-3.84,0-6.9,1.92-10.32,6.84-4.5,6.6-5.76,14.04-5.76,18.84,0,8.1,5.1,10.74,7.92,10.74,4.14,0,10.02-1.26,14.46-10.44.12-.3.36-.3.6-.24l1.32.36c.36.12.36.24.3.54l-4.26,12.84Z"/>
    <path class="cls-4" d="M126.5,19.18c.42,0,.6.3.48.72-.9,2.58-3.78,10.5-4.26,12.48-.24,1.02-2.34,7.74-2.34,8.64,0,.48.24.72.72.72.96,0,2.88-2.76,3.36-3.36.3-.36.42-.36.6-.24l.72.48c.18.12.12.36-.06.78-.6,1.2-3.9,6.3-9.48,6.3-1.8,0-2.46-.96-2.46-1.92,0-.78.3-1.86,2.34-7.8l-.54-.3c-2.34,3.6-6.3,10.02-11.94,10.02-1.62,0-4.14-2.28-4.14-4.68,0-7.56,7.44-21.54,16.02-21.54,2.7,0,3.9,1.14,4.68,2.1l.96-1.74c.3-.48.66-.66,1.08-.66h4.26ZM108.08,40.84c1.62,0,7.2-7.86,8.34-10.32.72-1.62,1.38-3.66,1.38-5.76,0-1.32-1.44-2.7-2.64-2.7-1.44,0-2.94,1.26-4.5,4.08-3,5.34-4.02,9.96-4.02,12.9,0,1.32.48,1.8,1.44,1.8Z"/>
    <path class="cls-4" d="M147.14,4.42c.54,0,.72.36.42,1.08l-12,33.66c-.6,1.68-.54,2.58.6,2.58,1.44,0,3.54-2.16,4.32-2.94.18-.18.36-.18.54,0l.66.72c.12.18.18.36,0,.66-.24.42-4.86,5.52-11.22,5.52-1.26,0-2.58-1.5-2.58-2.52s1.08-3.9,1.68-5.58l9.42-27.24c.78-2.28.6-3.78-1.14-3.78h-1.74c-.42,0-.54-.24-.48-.54l.36-1.2c.12-.36.24-.42.6-.42h10.56Z"/>
    <path class="cls-4" d="M159.14,38.86c.18.18.24.3.06.6-.3.48-4.02,6.24-11.7,6.24-1.8,0-2.34-.9-2.34-1.8,0-1.08,1.02-3.84,3.54-11.16l1.62-4.74c.54-1.56.9-2.64.9-3.36,0-.42-.24-.78-.78-.78-.96,0-3.66,3.06-4.38,4.02-.24.24-.48.24-.66.06l-.54-.54c-.18-.18-.3-.42-.18-.54.3-.36,5.1-7.38,11.52-7.38,1.86,0,2.64.96,2.64,2.16,0,1.32-.72,3.12-1.92,6.6l-3.24,9.18c-.78,2.22-.96,3.06-.96,3.66,0,.42.18.84.78.84,1.2,0,4.08-3.18,4.44-3.72.12-.18.36-.18.48-.06l.72.72ZM160.94,9.46c0,1.86-1.92,3.96-4.14,3.96-2.34,0-3.84-1.38-3.84-3.66,0-1.86,1.68-3.66,3.72-3.66,2.88,0,4.26,1.5,4.26,3.36Z"/>
    <path class="cls-4" d="M168.38,21.28c1.8-4.56,1.74-7.8,6.54-13.14,1.44-1.62,5.7-4.32,9.48-4.32,5.16,0,7.02,2.22,7.02,4.38,0,1.5-1.32,3-3.06,3-2.52,0-3.42-1.26-3.78-3.18-.12-.6-.54-1.74-1.92-1.74-3.96,0-5.58,8.58-7.14,15h6.3c.36,0,.48.18.42.54l-.3,1.5c-.06.42-.18.6-.66.6h-6.24c-1.32,4.92-3.66,15.18-5.82,21.48-2.94,8.58-8.46,17.52-15.84,17.52-3.6,0-5.58-1.62-5.58-3.9,0-1.68,1.08-3.18,2.94-3.18s2.94,1.44,3.12,3.36c.06.6.48,1.02,1.32,1.02,2.94,0,5.34-5.04,7.86-15.84l4.8-20.46h-5.04c-.3,0-.48-.24-.42-.54l.36-1.62c.06-.3.18-.48.66-.48h4.98Z"/>
    <path class="cls-4" d="M181.51,36.52c0-4.86,1.38-9.9,4.74-13.56,2.46-2.58,5.34-3.48,8.58-3.48s8.46,1.5,8.46,8.82c0,3.54-1.26,9.9-5.04,13.92-2.34,2.52-4.98,3.48-8.82,3.48-3.48,0-7.92-2.4-7.92-9.18ZM194.77,36.28c1.86-3.48,3.66-8.58,3.66-10.8,0-1.44-.6-2.58-2.22-2.58-2.28,0-4.02,2.1-6.72,6.96-2.04,3.6-3,7.26-3,9.72,0,1.2.72,2.64,2.1,2.64,1.8,0,3.72-1.26,6.18-5.94Z"/>
    <path class="cls-4" d="M207.86,45.1c-.42,0-.66-.24-.54-.54l2.88-9.72c1.02-3.36,2.88-9.3,2.88-10.44,0-.6-.42-1.14-1.02-1.14-.96,0-3.12,1.98-3.96,3.3-.24.36-.48.42-.72.24l-.6-.42c-.18-.12-.18-.3,0-.72.96-1.74,4.38-6.18,9.6-6.18,2.34,0,3.12,1.26,3.12,2.4,0,1.08-1.14,4.02-2.58,7.92l.66.36c1.5-3.3,5.1-10.68,9.48-10.68,1.74,0,3.42,1.32,3.42,3.24,0,2.1-1.62,3.9-2.7,3.9-.78,0-1.44-.12-1.98-.48-.48-.3-.9-.72-1.68-.72-1.86,0-5.1,4.74-6.42,7.8-.6,1.44-1.26,3.18-1.98,5.4l-1.92,6.06c-.12.3-.42.42-.78.42h-5.16Z"/>
    <path class="cls-4" d="M231.43,45.1c-.42,0-.66-.3-.54-.66l4.14-11.52c1.38-3.78,2.7-7.74,2.7-8.46,0-.6-.3-.96-.78-.96-.9,0-3.24,2.34-4.02,3.24-.18.18-.42.24-.6.06l-.6-.66c-.24-.18-.24-.36-.06-.6.9-1.2,4.68-6.06,10.92-6.06,1.8,0,2.4,1.38,2.4,2.34,0,.84-1.26,4.08-2.88,7.8l.54.42c1.8-2.64,6.78-10.56,12.72-10.56,2.58,0,3.84,2.34,3.84,4.02,0,1.32-.84,3.84-3.48,11.22-1.44,4.08-1.92,5.4-1.92,6.12s.3,1.02.78,1.02c.72,0,2.7-1.86,3.3-2.58.18-.24.42-.18.6,0l.54.48c.24.18.24.48.06.72-.72.96-4.38,5.22-10.08,5.22-1.8,0-2.4-1.08-2.4-2.28,0-1.08,1.26-4.68,3.12-9.96.96-2.76,2.4-6.78,2.4-7.86,0-.96-.48-1.32-1.2-1.32-1.38,0-5.82,4.8-8.22,8.7-1.32,2.1-2.58,4.02-2.94,5.04l-2.34,6.72c-.12.24-.24.36-.9.36h-5.1Z"/>
    <path class="cls-4" d="M277.63,38.86c.18.18.24.3.06.6-.3.48-4.02,6.24-11.7,6.24-1.8,0-2.34-.9-2.34-1.8,0-1.08,1.02-3.84,3.54-11.16l1.62-4.74c.54-1.56.9-2.64.9-3.36,0-.42-.24-.78-.78-.78-.96,0-3.66,3.06-4.38,4.02-.24.24-.48.24-.66.06l-.54-.54c-.18-.18-.3-.42-.18-.54.3-.36,5.1-7.38,11.52-7.38,1.86,0,2.64.96,2.64,2.16,0,1.32-.72,3.12-1.92,6.6l-3.24,9.18c-.78,2.22-.96,3.06-.96,3.66,0,.42.18.84.78.84,1.2,0,4.08-3.18,4.44-3.72.12-.18.36-.18.48-.06l.72.72ZM279.43,9.46c0,1.86-1.92,3.96-4.14,3.96-2.34,0-3.84-1.38-3.84-3.66,0-1.86,1.68-3.66,3.72-3.66,2.88,0,4.26,1.5,4.26,3.36Z"/>
    <path class="cls-4" d="M306.91,19.18c.42,0,.6.3.48.72-.9,2.58-3.78,10.5-4.26,12.48-.24,1.02-2.34,7.74-2.34,8.64,0,.48.24.72.72.72.96,0,2.88-2.76,3.36-3.36.3-.36.42-.36.6-.24l.72.48c.18.12.12.36-.06.78-.6,1.2-3.9,6.3-9.48,6.3-1.8,0-2.46-.96-2.46-1.92,0-.78.3-1.86,2.34-7.8l-.54-.3c-2.34,3.6-6.3,10.02-11.94,10.02-1.62,0-4.14-2.28-4.14-4.68,0-7.56,7.44-21.54,16.02-21.54,2.7,0,3.9,1.14,4.68,2.1l.96-1.74c.3-.48.66-.66,1.08-.66h4.26ZM288.49,40.84c1.62,0,7.2-7.86,8.34-10.32.72-1.62,1.38-3.66,1.38-5.76,0-1.32-1.44-2.7-2.64-2.7-1.44,0-2.94,1.26-4.5,4.08-3,5.34-4.02,9.96-4.02,12.9,0,1.32.48,1.8,1.44,1.8Z"/>
  </g>
  <g>
    <path class="cls-3" d="M108.55,68.07h-1.4c-1.28,0-3.68.04-5.36.64-.88.64-2.64,3.08-3.64,4.52-.12.2-.24.32-.4.28l-.88-.32c-.16-.04-.2-.24-.16-.36.44-1.68,1.76-6.96,1.92-7.76.12-.52.32-.68.6-.68s.4.16.76.6c.44.56,1.2.92,2.64,1,2.12.12,3.8.24,7.96.24h2.32c4.36,0,6.08-.16,7.76-.24.88-.04,2.44-.52,2.92-1,.4-.4.64-.6.92-.6s.4.16.48.64l1.2,7.96c.04.16-.04.32-.16.36l-.84.32c-.16.04-.24-.08-.4-.36-.88-1.44-2.44-3.52-3.44-4.48-1-.6-4.56-.76-5.48-.76h-1.32v11c0,.56,0,11.76.04,12.36.08,1,.4,1.6,1.36,1.6h1.8c.36,0,.4.12.4.4v.92c0,.2-.04.32-.4.32-.4,0-1.68-.12-6.12-.12s-5.92.12-6.48.12c-.32,0-.36-.16-.36-.48v-.76c0-.28.04-.4.28-.4h2.04c.8,0,1.28-.48,1.36-1.2.08-.84.08-13.12.08-13.88v-9.88Z"/>
    <path class="cls-3" d="M131.39,91.5c0,1.24.4,1.64,1.24,1.64h1.64c.24,0,.28.12.28.36v.8c0,.24-.04.36-.2.36-.24,0-2.08-.12-5.68-.12-3.08,0-4.76.12-5,.12-.16,0-.24-.08-.24-.4v-.76c0-.28.08-.36.44-.36h1.16c.6,0,.96-.24,1.04-.96.08-1.12.08-2.52.08-4.52v-3.32c0-1.72-.4-2.44-1.6-3.12l-.68-.4c-.24-.12-.32-.2-.32-.36v-.36c0-.16.08-.24.32-.32l5.6-2.44c.24-.08.4-.16.64-.16.28,0,.44.24.48.48l.36,3.12h.28c1.24-2.64,3-3.84,4.76-3.84,1.2,0,2.12.92,2.12,2.32,0,1.08-1.24,2.28-2.56,2.28-.56,0-1.08-.12-1.44-.36-.32-.2-.68-.28-1-.28-.4,0-.8.2-1.04.72-.52,1.08-.68,1.84-.68,2.36v7.52Z"/>
    <path class="cls-3" d="M147.95,81.78c0-.8-.08-1.72-.6-2.2-.4-.36-1.04-.48-1.68-.48-.72,0-1.4.16-2.12.64-.6.4-.12,1.08-.12,2.36,0,1.36-1,2.28-2.6,2.28-.92,0-1.72-.56-1.72-1.44s.28-2.08,1.12-2.8c1.68-1.52,4.44-2.96,7.68-2.96,2.56,0,3.24.4,4.08,1.16.88.8,1.12,1.96,1.12,3.4l.08,7.96c.04,2.08.16,2.72.92,2.72.56,0,1-.44,1.16-.72.16-.24.28-.28.4-.2l.56.32c.16.08.28.2.12.56-.36.84-1.56,2.72-4.04,2.72-1.56,0-3.04-.56-3.8-2.44h-.2c-1,.92-1.84,1.48-3.44,2.08-.8.28-1.72.36-2.88.36-1.4,0-2.64-1.52-2.64-3.68,0-1.76.84-3.6,3.44-4.88,3.12-1.48,4.12-1.92,5.16-2.64v-2.12ZM147.99,85.5c-1.96,1.12-3.6,1.72-3.6,4.48,0,1.84.84,2.6,1.72,2.64,1.08-.08,1.88-1.08,1.88-1.44v-5.68Z"/>
    <path class="cls-3" d="M166.83,94.66c-.32,0-2.16-.12-5.64-.12-2.32,0-3.88.12-4.32.12-.2,0-.32-.08-.32-.4v-.8c0-.24.12-.32.4-.32h1.48c.44,0,.72-.16.76-.8.08-1.2.08-2.44.08-3.56l-.08-5.6c0-1.12-.24-1.92-1.92-2.52-.44-.16-.48-.32-.48-.56v-.44c0-.12.08-.2.44-.32l5.96-1.92c.44-.16.8-.24,1.08-.24.32,0,.44.2.4.48-.08.68-.08,3.2-.08,6.72v4.28c0,1.56,0,3,.04,3.44.08.76.28,1.04.72,1.04h1.44c.32,0,.4.12.4.36v.76c0,.28-.08.4-.36.4ZM161.35,74.14c-1.68.04-2.92-1.28-2.92-2.88,0-1.32,1.36-2.64,3.12-2.64,1.96,0,2.96,1.36,2.96,2.52,0,1.32-.92,2.92-3.16,3Z"/>
    <path class="cls-3" d="M176.03,86.54c0,1.6,0,4.2.12,5.36.04.68.16,1.24,1,1.24h1.36c.36,0,.44.12.44.36v.76c0,.24-.08.4-.24.4-.28,0-2.04-.12-5.2-.12-3.36,0-4.96.12-5.32.12-.2,0-.28-.16-.28-.48v-.68c0-.28.08-.36.52-.36h1.2c.44,0,1.08-.28,1.08-1.72v-12.72c0-2.84,0-6.08-.08-7.12-.08-1.36-.92-1.92-2.2-2.32l-.72-.24c-.28-.12-.32-.24-.32-.44v-.6c0-.12.08-.28.36-.32,1.8-.36,5.96-1.72,7.12-2.32.44-.2.68-.28.88-.28.24,0,.4.2.36.72-.04,2.2-.08,10.52-.08,13.28v7.48Z"/>
    <path class="cls-3" d="M192.19,76.34c0-2.96,0-5.52-.04-6.6-.04-1.32-.56-2-1.12-2h-1.6c-.2,0-.24-.12-.24-.28v-1.08c0-.2.04-.28.24-.28.36,0,1.6.12,5.96.12,2.24,0,5.76-.12,7.4-.12,3.12,0,5.44,1.12,7.08,2.64,1.44,1.32,2.28,2.88,2.28,4.36,0,5.08-3.8,7.36-7.32,7.68v.28c1.24.4,1.88,1.16,2.64,2.12.52.64,2.72,4.2,3.04,4.68.24.36,2.4,3.4,3.2,4.32.48.52,2,.84,2.92.84.28,0,.32.16.32.32v.96c0,.24-.04.36-.32.36-.32,0-1.36-.12-4.44-.12-1.16,0-2.64.08-3.8.12-1.2-.92-3.68-5.56-4.36-6.92-1.36-2.72-3-5.68-4.92-5.68h-1.36v2.04c0,2.36.12,6.84.2,7.36.08.84.4,1.56,1,1.56h1.64c.28,0,.32.12.32.32v.96c0,.28-.04.36-.64.36-.04,0-1.04-.12-5.24-.12s-5.16.12-5.6.12c-.32,0-.32-.12-.32-.4v-.92c0-.2,0-.32.2-.32h1.2c.88,0,1.6-.28,1.6-1.28.08-3.96.08-7.72.08-11.52v-3.88ZM197.79,80.66c.76.04,1.24.04,1.6.04,5.28,0,6.52-5.04,6.52-6.92s-.64-3.6-1.52-4.48c-1.44-1.28-3.24-1.76-4.44-1.76-.68,0-1.2.08-1.52.36-.24.16-.36.6-.44,1.08l-.2,11.68Z"/>
    <path class="cls-3" d="M223.03,84.58v1.08c0,4.16,2.36,6.2,5.28,6.2,1.96,0,3.56-.92,4.36-2.2.08-.2.24-.24.4-.12l.68.36c.16.08.28.28-.08.96-.72,1.48-3.32,4.24-7.08,4.24-2.56,0-4.68-.44-6-1.88-2.04-2.2-2.72-3.76-2.76-6.88,0-1.12,0-3.24,1.8-5.88,1.44-2.12,3.88-3.28,6.96-3.28,6.48,0,6.84,6.2,6.84,6.84,0,.52-.36.56-1.24.56h-9.16ZM226.91,83.06c.88,0,1.28-.2,1.28-.8,0-1.76-.72-3.48-1.96-3.48-1.88,0-2.88,1.48-3.16,4.28h3.84Z"/>
    <path class="cls-3" d="M237.71,83.86c0-1.36-.12-1.96-1.32-2.6l-.92-.48c-.2-.12-.28-.2-.28-.36v-.52c0-.12.08-.2.28-.28l5.2-2.04c.52-.2.88-.4,1.24-.4.24,0,.36.28.48.84l.28,1.48h.16c1-1.24,3.08-2.32,5.08-2.32,2.16,0,3.64.6,4.96,2.04,1.68,1.84,2.24,3.24,2.16,5.56.04,6.08-4.04,10.32-9.12,10.32-.68,0-1.96-.04-3-.64l.04,6.12c.04,3.24.44,3.44,1.4,3.44h1c.32,0,.36.16.36.4v.76c0,.24-.08.36-.36.36-.2,0-1.56-.12-5.12-.12-2.92,0-4.32.12-4.64.12-.28,0-.36-.12-.36-.4v-.8c0-.2.08-.32.48-.32h.92c.68,0,.96-.4,1.04-1.04.08-.88.08-2.08.08-4.36l-.04-14.76ZM242.91,90.3c0,.64.28,1.68,1.08,2.32.6.48,1.44.92,2.4.92,1.68,0,3.16-1.48,3.16-5.32,0-2.52-.28-8.28-4.16-8.28-.76,0-1.84.32-2.48,1.08v9.28Z"/>
    <path class="cls-3" d="M259.55,92.18c-1.52-1.68-2.12-3.8-2.12-6.32,0-1.8,1-4.76,3.44-6.64,2.04-1.6,4.08-2.04,5.96-2.04,2.76,0,4.64.84,6.44,2.52,1.96,1.76,2.76,3.92,2.76,6.36s-1,4.56-2.56,6.24c-1.92,2-4.24,2.8-6.96,2.8-2.92,0-4.92-.6-6.96-2.92ZM269.95,85.78c0-4.64-1.6-6.92-3.36-6.92-1,0-1.64.28-2.16,1.08-.8,1.24-1.32,2.96-1.32,6.2,0,2.32.2,3.84,1,5.56.52,1.08,1.16,1.72,2.64,1.72,2.2,0,3.2-3.24,3.2-7.64Z"/>
    <path class="cls-3" d="M285.67,91.5c0,1.24.4,1.64,1.24,1.64h1.64c.24,0,.28.12.28.36v.8c0,.24-.04.36-.2.36-.24,0-2.08-.12-5.68-.12-3.08,0-4.76.12-5,.12-.16,0-.24-.08-.24-.4v-.76c0-.28.08-.36.44-.36h1.16c.6,0,.96-.24,1.04-.96.08-1.12.08-2.52.08-4.52v-3.32c0-1.72-.4-2.44-1.6-3.12l-.68-.4c-.24-.12-.32-.2-.32-.36v-.36c0-.16.08-.24.32-.32l5.6-2.44c.24-.08.4-.16.64-.16.28,0,.44.24.48.48l.36,3.12h.28c1.24-2.64,3-3.84,4.76-3.84,1.2,0,2.12.92,2.12,2.32,0,1.08-1.24,2.28-2.56,2.28-.56,0-1.08-.12-1.44-.36-.32-.2-.68-.28-1-.28-.4,0-.8.2-1.04.72-.52,1.08-.68,1.84-.68,2.36v7.52Z"/>
    <path class="cls-3" d="M301.23,88.7c0,3.28,1.24,4,2.2,4,.84,0,1.44-.12,2.08-.48.12-.08.24-.08.36.16l.28.6c.12.2,0,.4-.16.52-.68.48-2.48,1.6-5.6,1.6-2.72,0-4.44-1.88-4.44-3.72,0-1.4.08-4.44.08-5.96l.04-5.28h-2.2c-.36,0-.64-.16-.64-.56s.24-.68.88-1c1.32-.6,4.68-3.6,6.16-5.28.28-.32.56-.4.76-.4.36,0,.52.28.52.6l-.16,4.24h5.08c.24,0,.36.2.28.36l-.4,1.72c-.04.16-.12.32-.36.32h-4.68c-.08,1.64-.08,3.56-.08,5.4v3.16Z"/>
  </g>
  <g id="f4KPrC.tif">
    <g>
      <path class="cls-1" d="M37.85,1.5H3.15c-.93,2.22.26,2.72.69,4.28.47,1.7.07,6.09-.29,7.92-.48,2.42-2.51,3.4-1.95,6.39.31,1.68,3.65,3.57,4.5,5.95s.24,6.95,1.31,10.21c.93,2.82,7.57,5.4,5.58,9.3,5.87-.56,3.32,9.16,6.75,10.74,1.77.81,4.02-.28,3.08,3.59-.11.45-1.07.16-1.07,1.11,0,2.38,2.78,4.78,4.32,6.72.58.74.66,1.79,1.08,2.31,1.55,1.94,4.39,1.57,3.52,5.36,3.55-.16.57,5.17,2.72,6.94.91.75,6.34.65,8.08,1.25,2.54.89,2.88,3.26,6.09,3.81,1.79.31,4.38-1.14,3.24,2.75,3.02-.53,8.4,3.81,9.36,6.52.69,1.94.35,3.77,1.81,5.58,3.22-.85,19.78-.92,21.32-2.26.38-.33.77-1.68.63-2.17l-1.97-.92c-1.15-2.48,1.02-3.82,1.37-5.02.84-2.85-.61-4.87,3.2-7.27.22-1-1.29-1.14-1.76-1.85-2.03-3.02-2.56-6.07-5.45-9.17-7.05-7.56-15.25-14.92-22.81-22.01-6.09-5.72-12.67-10.94-18.65-16.78V1.5Z"/>
      <path class="cls-2" d="M37.85,1.5v33.31c5.98,5.84,12.56,11.06,18.65,16.78,7.56,7.09,15.75,14.46,22.81,22.01,2.89,3.1,3.42,6.14,5.45,9.17.47.71,1.98.85,1.76,1.85-3.8,2.4-2.36,4.42-3.2,7.27-.35,1.19-2.52,2.54-1.37,5.02l1.97.92c.14.49-.25,1.84-.63,2.17-1.54,1.34-18.1,1.42-21.32,2.26-1.46-1.81-1.13-3.64-1.81-5.58-.96-2.71-6.34-7.06-9.36-6.52,1.15-3.89-1.45-2.45-3.24-2.75-3.2-.55-3.54-2.92-6.09-3.81-1.73-.6-7.17-.51-8.08-1.25-2.15-1.76.83-7.09-2.72-6.94.87-3.79-1.98-3.42-3.52-5.36-.41-.52-.49-1.58-1.08-2.31-1.54-1.94-4.33-4.34-4.32-6.72,0-.95.96-.66,1.07-1.11.93-3.88-1.31-2.78-3.08-3.59-3.42-1.57-.88-11.29-6.75-10.74,1.99-3.9-4.66-6.48-5.58-9.3-1.07-3.26-.42-7.72-1.31-10.21s-4.19-4.26-4.5-5.95c-.56-2.99,1.47-3.98,1.95-6.39.36-1.84.76-6.23.29-7.92-.43-1.57-1.62-2.06-.69-4.28h34.7ZM36.81,2.55H4.18c-.4,1.46,1.17,2.94,1.3,3.93.23,1.84-1.23,5.08-.79,6.75.12.44,1.14.29,1.05.59-.47,1.59-3.17,3.5-3.03,5.11.17,1.93,3.5,4.24,4.42,6.6,1.13,2.91-.03,6.24,1.33,9.68.75,1.9,3.51,3.67,4.54,4.99s1.91,3.34,2.59,4.84l1.85-2.64c3.37,2.17,10-1.7,9.53,4.74-2.26-.8-4.83-1.15-7.25-.52.97,1.91,2.66.84,1.57,3.35l1.53,1.1c-.72,2.04-3.93.56-3.63,2.11.59,3.53,3.63,1.35,4.79,4.06,1.22,2.85-1.17,3.72-.66,5.8.12.5,1.16.61,1.57,1.13,1.72,2.18,7.75,9.12,8.41,10.91.78,2.1.09,4.36.87,6.42,3.04.58,7.34.11,9.88,2.11.75.59.92,1.67,1.68,1.99,1.65.7,3.72-.07,5.07.6.68.34.94,1.58,1.58,2.07,2.84,2.19,7.37,4.29,8.81,7.86.71,1.75.1,3.97,2.35,4.9l18.84-1.98c.48-1.48-1.17-.88-1.48-1.89-.09-.28-.56-3.9-.51-4.11.13-.6,1.31-.66,1.65-1.46.95-2.25-.5-5.49,2.92-6.96-2.66-3.22-3.46-6.8-6.39-10.05-6.17-6.85-14.73-14.47-21.56-20.91s-13.75-11.93-20.21-18.35V2.55ZM19.2,44.52l-2.08.28c.61,2.2.54,5.34,3.11,6.01l-2.1-4.96,1.07-1.34Z"/>
      <path class="cls-1" d="M36.81,2.55v32.78c6.46,6.42,13.59,12.11,20.21,18.35s15.39,14.06,21.56,20.91c2.93,3.25,3.73,6.83,6.39,10.05-3.42,1.47-1.97,4.71-2.92,6.96-.34.8-1.52.86-1.65,1.46-.04.2.42,3.82.51,4.11.32,1.01,1.96.41,1.48,1.89l-18.84,1.98c-2.25-.92-1.64-3.15-2.35-4.9-1.45-3.57-5.98-5.67-8.81-7.86-.64-.49-.9-1.73-1.58-2.07-1.34-.67-3.42.1-5.07-.6-.76-.32-.94-1.4-1.68-1.99-2.54-2-6.84-1.53-9.88-2.11-.78-2.06-.1-4.32-.87-6.42-.66-1.79-6.69-8.73-8.41-10.91-.41-.53-1.45-.63-1.57-1.13-.51-2.08,1.88-2.94.66-5.8s-4.2-.54-4.79-4.06c-.3-1.55,2.91-.07,3.63-2.11l-1.53-1.1c1.09-2.51-.6-1.44-1.57-3.35,2.42-.63,4.98-.28,7.25.52.47-6.45-6.16-2.57-9.53-4.74l-1.85,2.64c-.67-1.5-1.6-3.58-2.59-4.84s-3.79-3.09-4.54-4.99c-1.35-3.44-.2-6.76-1.33-9.68-.92-2.36-4.25-4.67-4.42-6.6-.14-1.62,2.56-3.52,3.03-5.11.09-.3-.93-.15-1.05-.59-.44-1.67,1.02-4.91.79-6.75-.12-.99-1.7-2.47-1.3-3.93h32.63Z"/>
      <path class="cls-1" d="M19.2,44.52l-1.07,1.34,2.1,4.96c-2.57-.68-2.5-3.82-3.11-6.01l2.08-.28Z"/>
    </g>
  </g>
</svg>